<svg xmlns="http://www.w3.org/2000/svg" viewBox="0 0 861.667 470" height="100%">
    <g fill="#ff8f1c" stroke-miterlimit="10" font-family="none" font-size="none" style="mix-blend-mode:normal">
        <g transform="translate(-75 -240) scale(1.5 1.5)"><path d="M81.79725,281.8106l-3.29647,-0.7702c-1.69445,-0.43131 -1.97172,-1.1399 -1.97172,-1.94091c0,-0.86263 0.7702,-1.78687 2.98839,-1.78687c1.63283,0 3.08081,0.27727 3.32728,2.09495h5.29899c-0.46212,-4.49798 -4.00505,-6.53132 -8.62627,-6.53132c-4.9293,0 -8.349,2.24899 -8.349,6.0692c0,4.22071 2.98839,5.48384 6.59293,6.31566l2.74192,0.64697c2.09495,0.49293 2.89596,1.07828 2.89596,2.61869c0,1.32475 -1.32475,1.97172 -3.7894,1.97172c-2.43384,0 -3.45051,-0.95505 -3.72778,-2.80354h-5.36061c0.40051,4.80606 3.88182,7.2399 9.02677,7.2399c4.80606,0 9.21162,-1.94091 9.21162,-6.37728c0,-3.69697 -1.94091,-5.57627 -6.96263,-6.74697z" data-paper-data="{&quot;glyphName&quot;:&quot;S&quot;,&quot;glyphIndex&quot;:0,&quot;firstGlyphOfWord&quot;:true,&quot;word&quot;:1}"></path><path d="M107.2242,272.87625c-6.0692,0 -9.98183,3.75859 -9.98183,11.0293c0,7.27071 3.91263,11.0293 9.98183,11.0293c6.0692,0 9.95102,-3.75859 9.95102,-11.0293c0,-7.27071 -3.88182,-11.0293 -9.95102,-11.0293zM107.2242,290.37525c-3.20404,0 -4.62122,-2.21818 -4.62122,-6.4697c0,-4.28233 1.41717,-6.4697 4.62122,-6.4697c3.20404,0 4.62122,2.18738 4.62122,6.4697c0,4.25152 -1.41717,6.4697 -4.62122,6.4697z" data-paper-data="{&quot;glyphName&quot;:&quot;O&quot;,&quot;glyphIndex&quot;:1,&quot;word&quot;:1}"></path><path d="M131.48045,290.12878v-17.00607h-5.17576v21.56567h13.64799v-4.5596z" data-paper-data="{&quot;glyphName&quot;:&quot;L&quot;,&quot;glyphIndex&quot;:2,&quot;word&quot;:1}"></path><path d="M158.417,272.87625c-6.0692,0 -9.98183,3.75859 -9.98183,11.0293c0,7.27071 3.91263,11.0293 9.98183,11.0293c6.0692,0 9.95102,-3.75859 9.95102,-11.0293c0,-7.27071 -3.88182,-11.0293 -9.95102,-11.0293zM158.417,290.37525c-3.20404,0 -4.62122,-2.21818 -4.62122,-6.4697c0,-4.28233 1.41717,-6.4697 4.62122,-6.4697c3.20404,0 4.62122,2.18738 4.62122,6.4697c0,4.25152 -1.41717,6.4697 -4.62122,6.4697z" data-paper-data="{&quot;glyphName&quot;:&quot;O&quot;,&quot;glyphIndex&quot;:3,&quot;lastGlyphOfWord&quot;:true,&quot;word&quot;:1}"></path><path d="M198.02595,290.12878v-17.00607h-5.17576v21.56567h13.64799v-4.5596z" data-paper-data="{&quot;glyphName&quot;:&quot;L&quot;,&quot;glyphIndex&quot;:4,&quot;firstGlyphOfWord&quot;:true,&quot;word&quot;:2}"></path><path d="M224.96251,272.87625c-6.0692,0 -9.98183,3.75859 -9.98183,11.0293c0,7.27071 3.91263,11.0293 9.98183,11.0293c6.0692,0 9.95102,-3.75859 9.95102,-11.0293c0,-7.27071 -3.88182,-11.0293 -9.95102,-11.0293zM224.96251,290.37525c-3.20404,0 -4.62122,-2.21818 -4.62122,-6.4697c0,-4.28233 1.41717,-6.4697 4.62122,-6.4697c3.20404,0 4.62122,2.18738 4.62122,6.4697c0,4.25152 -1.41717,6.4697 -4.62122,6.4697z"></path><path d="M254.70259,281.8106l-3.29647,-0.7702c-1.69445,-0.43131 -1.97172,-1.1399 -1.97172,-1.94091c0,-0.86263 0.7702,-1.78687 2.98839,-1.78687c1.63283,0 3.08081,0.27727 3.32728,2.09495h5.29899c-0.46212,-4.49798 -4.00505,-6.53132 -8.62627,-6.53132c-4.9293,0 -8.349,2.24899 -8.349,6.0692c0,4.22071 2.98839,5.48384 6.59293,6.31566l2.74192,0.64697c2.09495,0.49293 2.89596,1.07828 2.89596,2.61869c0,1.32475 -1.32475,1.97172 -3.7894,1.97172c-2.43384,0 -3.45051,-0.95505 -3.72778,-2.80354h-5.36061c0.40051,4.80606 3.88182,7.2399 9.02677,7.2399c4.80606,0 9.21162,-1.94091 9.21162,-6.37728c0,-3.69697 -1.94091,-5.57627 -6.96263,-6.74697z" data-paper-data="{&quot;glyphName&quot;:&quot;S&quot;,&quot;glyphIndex&quot;:6,&quot;lastGlyphOfWord&quot;:true,&quot;word&quot;:2}"></path><path d="M295.42064,290.37525c-3.17323,0 -4.5596,-2.21818 -4.5596,-6.4697c0,-4.28233 1.38636,-6.4697 4.5596,-6.4697c2.18738,0 3.14243,0.55455 4.03586,2.6495h4.99091c-0.55455,-4.9293 -4.68283,-7.2091 -9.1192,-7.2091c-5.94596,0 -9.82778,3.75859 -9.82778,11.0293c0,7.27071 3.88182,11.0293 9.82778,11.0293c4.46717,0 8.62627,-2.2798 9.15001,-7.27071h-4.99091c-0.86263,2.15657 -1.84849,2.71111 -4.06667,2.71111z" data-paper-data="{&quot;glyphName&quot;:&quot;C&quot;,&quot;glyphIndex&quot;:7,&quot;firstGlyphOfWord&quot;:true,&quot;word&quot;:3}"></path><path d="M318.5986,290.12878v-17.00607h-5.17576v21.56567h13.64799v-4.5596z" data-paper-data="{&quot;glyphName&quot;:&quot;L&quot;,&quot;glyphIndex&quot;:8,&quot;word&quot;:3}"></path><path d="M351.23465,267.29998h-6.68536l-1.1399,3.94344h4.28233zM350.68011,294.68838h5.60707l-8.56465,-21.56567h-4.1899l-8.53384,21.56567h5.57627l1.20152,-3.54293h7.70203zM343.0705,287.38686l2.55707,-7.39394l2.55707,7.39394z" data-paper-data="{&quot;glyphName&quot;:&quot;Ã&quot;,&quot;glyphIndex&quot;:9,&quot;word&quot;:3}"></path><path d="M375.46009,281.8106l-3.29647,-0.7702c-1.69445,-0.43131 -1.97172,-1.1399 -1.97172,-1.94091c0,-0.86263 0.7702,-1.78687 2.98839,-1.78687c1.63283,0 3.08081,0.27727 3.32728,2.09495h5.29899c-0.46212,-4.49798 -4.00505,-6.53132 -8.62627,-6.53132c-4.9293,0 -8.349,2.24899 -8.349,6.0692c0,4.22071 2.98839,5.48384 6.59293,6.31566l2.74192,0.64697c2.09495,0.49293 2.89596,1.07828 2.89596,2.61869c0,1.32475 -1.32475,1.97172 -3.7894,1.97172c-2.43384,0 -3.45051,-0.95505 -3.72778,-2.80354h-5.36061c0.40051,4.80606 3.88182,7.2399 9.02677,7.2399c4.80606,0 9.21162,-1.94091 9.21162,-6.37728c0,-3.69697 -1.94091,-5.57627 -6.96263,-6.74697z" data-paper-data="{&quot;glyphName&quot;:&quot;S&quot;,&quot;glyphIndex&quot;:10,&quot;word&quot;:3}"></path><path d="M396.85118,294.68838v-21.56567h-5.17576v21.56567z" data-paper-data="{&quot;glyphName&quot;:&quot;I&quot;,&quot;glyphIndex&quot;:11,&quot;word&quot;:3}"></path><path d="M415.87005,290.37525c-3.17323,0 -4.5596,-2.21818 -4.5596,-6.4697c0,-4.28233 1.38636,-6.4697 4.5596,-6.4697c2.18738,0 3.14243,0.55455 4.03586,2.6495h4.99091c-0.55455,-4.9293 -4.68283,-7.2091 -9.1192,-7.2091c-5.94596,0 -9.82778,3.75859 -9.82778,11.0293c0,7.27071 3.88182,11.0293 9.82778,11.0293c4.46717,0 8.62627,-2.2798 9.15001,-7.27071h-4.99091c-0.86263,2.15657 -1.84849,2.71111 -4.06667,2.71111z" data-paper-data="{&quot;glyphName&quot;:&quot;C&quot;,&quot;glyphIndex&quot;:12,&quot;word&quot;:3}"></path><path d="M442.7758,272.87625c-6.0692,0 -9.98183,3.75859 -9.98183,11.0293c0,7.27071 3.91263,11.0293 9.98183,11.0293c6.0692,0 9.95102,-3.75859 9.95102,-11.0293c0,-7.27071 -3.88182,-11.0293 -9.95102,-11.0293zM442.7758,290.37525c-3.20404,0 -4.62122,-2.21818 -4.62122,-6.4697c0,-4.28233 1.41717,-6.4697 4.62122,-6.4697c3.20404,0 4.62122,2.18738 4.62122,6.4697c0,4.25152 -1.41717,6.4697 -4.62122,6.4697z" data-paper-data="{&quot;glyphName&quot;:&quot;O&quot;,&quot;glyphIndex&quot;:13,&quot;word&quot;:3}"></path><path d="M472.51588,281.8106l-3.29647,-0.7702c-1.69445,-0.43131 -1.97172,-1.1399 -1.97172,-1.94091c0,-0.86263 0.7702,-1.78687 2.98839,-1.78687c1.63283,0 3.08081,0.27727 3.32728,2.09495h5.29899c-0.46212,-4.49798 -4.00505,-6.53132 -8.62627,-6.53132c-4.9293,0 -8.349,2.24899 -8.349,6.0692c0,4.22071 2.98839,5.48384 6.59293,6.31566l2.74192,0.64697c2.09495,0.49293 2.89596,1.07828 2.89596,2.61869c0,1.32475 -1.32475,1.97172 -3.7894,1.97172c-2.43384,0 -3.45051,-0.95505 -3.72778,-2.80354h-5.36061c0.40051,4.80606 3.88182,7.2399 9.02677,7.2399c4.80606,0 9.21162,-1.94091 9.21162,-6.37728c0,-3.69697 -1.94091,-5.57627 -6.96263,-6.74697z" data-paper-data="{&quot;glyphName&quot;:&quot;S&quot;,&quot;glyphIndex&quot;:14,&quot;lastGlyphOfWord&quot;:true,&quot;word&quot;:3}"></path></g>
        <path d="M60.466 52.287H29.345a.125.125 0 0 0-.122.125v45.066c0 .068.054.122.122.122h31.121c4.731 0 9.247-1.433 13.059-4.148a22.7 22.7 0 0 0 9.597-18.511c0-12.493-10.164-22.656-22.656-22.656m2.435 68.716q-.04-.063-.11-.059a45 45 0 0 1-2.324.059H29.345a.125.125 0 0 0-.122.125v25.909c0 .068.054.122.122.122h49.51a.122.122 0 0 0 .106-.188zm144.701-68.467a.125.125 0 0 0 .125-.125V28.754a.125.125 0 0 0-.125-.125H106.649l-.007.002H60.466a.125.125 0 0 0 0 .247c25.396 0 46.06 20.661 46.06 46.06a45.94 45.94 0 0 1-20.692 38.439.125.125 0 0 0-.038.167l20.748 33.551.014.007a.12.12 0 0 0 .073.04c.007 0 .012.012.021.012l.021-.002h100.935a.125.125 0 0 0 .125-.125v-23.653a.125.125 0 0 0-.125-.125h-77.174V99.841h53.528a.125.125 0 0 0 .125-.125V76.068a.125.125 0 0 0-.125-.125h-53.529V52.537zm15.224.007h38.524v94.498c0 .068.056.122.125.122h23.655a.125.125 0 0 0 .122-.122v-94.5h38.528a.125.125 0 0 0 .122-.122V28.76a.125.125 0 0 0-.122-.122H222.826a.125.125 0 0 0-.125.125v23.655c0 .068.054.122.125.122m116.186 94.626h23.65a.125.125 0 0 0 .122-.125v-25.787h30.996q1.14 0 2.263-.056l16.02 25.909a.12.12 0 0 0 .106.059h27.793a.12.12 0 0 0 .108-.063.12.12 0 0 0-.002-.125l-20.685-33.452a46.18 46.18 0 0 0 20.701-38.575c0-25.533-20.774-46.307-46.307-46.307h-54.769a.125.125 0 0 0-.125.125v118.273a.125.125 0 0 0 .125.125m67.687-53.909a22.16 22.16 0 0 1-12.918 4.103h-30.996V52.539h30.996c12.359 0 22.412 10.056 22.412 22.412a22.44 22.44 0 0 1-9.492 18.309m102.286 3.304V28.762a.125.125 0 0 0-.125-.125h-53.665a.125.125 0 0 0-.122.125v67.802c0 14.861 12.091 26.952 26.95 26.952 14.868 0 26.962-12.091 26.962-26.952m124.578-67.873a.12.12 0 0 0-.101-.052h-24.832a.12.12 0 0 0-.12.087l-25.526 79.329-25.526-79.329a.12.12 0 0 0-.115-.087h-24.835l-.007.007-.016-.002a.12.12 0 0 0-.073.047h-.002l-.002.012a.2.2 0 0 0-.021.063v67.797c0 27.765-22.588 50.353-50.353 50.353a.125.125 0 0 0 0 .247h113.369a.12.12 0 0 0 .117-.087l38.058-118.275a.12.12 0 0 0-.016-.11m15.114 118.471h23.648a.125.125 0 0 0 .122-.125V28.764a.125.125 0 0 0-.122-.125h-23.648a.125.125 0 0 0-.122.125v118.273c0 .068.054.125.122.125" fill="currentColor"/>
    </g>
</svg>
